<?xml version="1.0" standalone="no"?><!DOCTYPE svg PUBLIC "-//W3C//DTD SVG 1.1//EN" "http://www.w3.org/Graphics/SVG/1.1/DTD/svg11.dtd"><svg t="1586875861480" class="icon" viewBox="0 0 1024 1024" version="1.1" xmlns="http://www.w3.org/2000/svg" p-id="2150" xmlns:xlink="http://www.w3.org/1999/xlink" width="200" height="200"><defs><style type="text/css">@font-face { font-family: element-icons; src: url("chrome-extension://moombeodfomdpjnpocobemoiaemednkg/fonts/element-icons.woff") format("woff"), url("chrome-extension://moombeodfomdpjnpocobemoiaemednkg/fonts/element-icons.ttf ") format("truetype"); }
</style></defs><path d="M512 0C794.71078 0 1024 229.28922 1024 512 1024 794.728136 794.71078 1024 512 1024 229.271864 1024 0 794.728136 0 512 0 229.28922 229.271864 0 512 0z m299.719593 622.939119c-13.850034-80.479458-72.183322-133.241492-72.183322-133.241492 8.348203-73.068475-22.180881-86.050712-22.180881-86.050712-6.473763-226.199864-201.25939-222.208-205.35539-222.069152-4.113356-0.138847-198.933695-4.148068-205.303322 222.051796 0 0-30.581153 12.982237-22.250305 86.050712 0 0-58.315932 52.762034-72.183322 133.241492 0 0-0.260339 3.991864-0.208271 10.083796 0.034712 29.157966 5.501831 105.419932 66.802983 6.560543 0 0 16.661695 45.298983 47.242847 86.120135 0 0-54.653831 18.484068-50.019796 66.594712 0 0-1.857085 53.664542 116.614508 49.950373 0 0 83.256407-6.439051 108.248949-41.654237h22.076746c24.923119 35.215186 108.196881 41.654237 108.196881 41.654237 118.419525 3.714169 116.614508-49.950373 116.614509-49.950373 4.599322-48.110644-50.019797-66.594712-50.019797-66.594712 30.581153-40.751729 47.19078-86.120136 47.19078-86.120135 74.127186 119.408814 66.716203-16.626983 66.716203-16.626983z" fill="#19A9F1" p-id="2151"></path></svg>