<?xml version="1.0" standalone="no"?><!DOCTYPE svg PUBLIC "-//W3C//DTD SVG 1.1//EN" "http://www.w3.org/Graphics/SVG/1.1/DTD/svg11.dtd"><svg t="1586875905292" class="icon" viewBox="0 0 1024 1024" version="1.1" xmlns="http://www.w3.org/2000/svg" p-id="2908" xmlns:xlink="http://www.w3.org/1999/xlink" width="200" height="200"><defs><style type="text/css">@font-face { font-family: element-icons; src: url("chrome-extension://moombeodfomdpjnpocobemoiaemednkg/fonts/element-icons.woff") format("woff"), url("chrome-extension://moombeodfomdpjnpocobemoiaemednkg/fonts/element-icons.ttf ") format("truetype"); }
</style></defs><path d="M347.73 353.024c-16.488 0-29.778 13.39-29.778 29.777s13.29 29.877 29.777 29.877 29.777-13.39 29.777-29.777-13.29-29.877-29.777-29.877zM577.75 511.8c-13.69 0-24.881 11.091-24.881 24.88 0 13.69 11.091 24.881 24.88 24.881 13.69 0 24.881-11.191 24.881-24.88s-11.191-24.88-24.88-24.88z m-76.84-99.122c16.487 0 29.776-13.39 29.776-29.777s-13.39-29.777-29.777-29.777c-16.487 0-29.776 13.39-29.776 29.777s13.29 29.777 29.776 29.777zM698.454 511.6c-13.69 0-24.88 11.092-24.88 24.88 0 13.69 11.09 24.881 24.88 24.881 13.69 0 24.88-11.09 24.88-24.88-0.1-13.69-11.19-24.88-24.88-24.88z" fill="#00C800" p-id="2909"></path><path d="M511.601 0.8C229.121 0.8 0.001 229.82 0.001 512.4S229.02 1024 511.6 1024s511.6-229.021 511.6-511.6S794.181 0.8 511.601 0.8z m-90.23 634.504c-27.378 0-49.36-5.596-76.84-10.992l-76.64 38.47 21.883-65.948c-54.957-38.37-87.731-87.832-87.731-148.085 0-104.318 98.723-186.554 219.329-186.554 107.815 0 202.342 65.649 221.327 153.98-6.995-0.8-13.99-1.3-21.084-1.3-104.119 0-186.454 77.74-186.454 173.565 0 15.988 2.498 31.276 6.795 45.964-6.795 0.6-13.69 0.9-20.584 0.9z m323.548 76.84l16.487 54.757-60.153-32.874c-21.883 5.495-43.966 10.991-65.849 10.991-104.318 0-186.554-71.344-186.554-159.176 0-87.631 82.136-159.175 186.554-159.175 98.523 0 186.255 71.444 186.255 159.175 0.1 49.462-32.775 93.227-76.74 126.302z" fill="#00C800" p-id="2910"></path></svg>