<?xml version="1.0" standalone="no"?><!DOCTYPE svg PUBLIC "-//W3C//DTD SVG 1.1//EN" "http://www.w3.org/Graphics/SVG/1.1/DTD/svg11.dtd"><svg t="1586875933372" class="icon" viewBox="0 0 1024 1024" version="1.1" xmlns="http://www.w3.org/2000/svg" p-id="3551" xmlns:xlink="http://www.w3.org/1999/xlink" width="200" height="200"><defs><style type="text/css">@font-face { font-family: element-icons; src: url("chrome-extension://moombeodfomdpjnpocobemoiaemednkg/fonts/element-icons.woff") format("woff"), url("chrome-extension://moombeodfomdpjnpocobemoiaemednkg/fonts/element-icons.ttf ") format("truetype"); }
</style></defs><path d="M512 1024C229.262222 1024 0 794.737778 0 512S229.262222 0 512 0s512 229.262222 512 512-229.262222 512-512 512z m176.298667-495.36c-27.221333-5.233778-13.994667-19.626667-13.994667-19.626667s26.567111-43.093333-5.290667-74.524444c-39.509333-38.798222-135.452444 4.977778-135.452444 4.977778-36.608 11.178667-26.88-5.12-21.76-32.853334 0-32.625778-11.320889-88.035556-108.942222-55.296-97.621333 32.853333-181.333333 147.968-181.333334 147.968-58.282667 76.401778-50.517333 135.537778-50.517333 135.537778 14.506667 130.474667 155.392 166.371556 265.045333 174.762667 115.285333 8.931556 270.848-39.111111 318.037334-137.699556 47.160889-98.816-38.599111-137.898667-65.792-143.246222z m59.107555-59.306667a19.342222 19.342222 0 0 0 19.114667-16.384 7.253333 7.253333 0 0 0 0.284444-2.048c14.563556-130.56-107.292444-108.117333-107.292444-108.117333a19.484444 19.484444 0 0 0-19.512889 19.626667c0 10.752 8.675556 19.456 19.512889 19.456 87.552-19.285333 68.266667 68.010667 68.266667 68.010666 0 10.837333 8.732444 19.456 19.626666 19.456z m-32.768-208.924444c-40.618667-9.272889-82.346667-1.336889-94.037333 0.853333-0.910222 0.056889-1.848889 0.881778-2.56 1.052445-0.455111 0.142222-0.711111 0.512-0.711111 0.512a26.88 26.88 0 0 0-19.996445 25.742222c0 14.506667 12.231111 26.538667 27.448889 26.538667 0 0 14.734222-1.934222 24.746667-5.774223 9.955556-3.84 94.065778-2.844444 135.793778 65.137778 22.869333 49.607111 10.069333 82.744889 8.476444 88.120889 0 0-5.461333 12.8-5.461333 25.543111 0 14.677333 12.259556 23.864889 27.392 23.864889 12.544 0 23.182222-1.649778 26.197333-22.357333h0.170667c44.942222-144.782222-54.812444-212.821333-127.488-229.262223z" fill="#F3614C" p-id="3552"></path><path d="M447.857778 767.658667C341.76 772.721778 256 718.762667 256 646.912c0-71.936 85.76-129.564444 191.857778-134.542222C554.097778 507.448889 640 551.822222 640 623.502222c0 71.907556-85.987556 139.320889-192.142222 144.213334v-0.028445z m-148.764445-103.338667s1.365333 26.453333 29.582223 44.657778c47.815111 30.947556 124.871111 15.672889 164.551111-26.794667 39.68-42.439111 20.252444-150.755556-96.597334-123.050667-110.364444 26.197333-97.536 105.187556-97.536 105.187556z m80.213334 23.751111c-21.902222 7.168-39.651556 0.995556-45.312-11.207111-5.688889-12.145778 0.711111-32 21.276444-40.789333 20.565333-8.817778 36.522667-4.892444 46.933333 7.964444 10.439111 12.856889-0.938667 36.892444-22.869333 44.060445h-0.028444z m54.385777-48.668444c-8.078222 5.12-15.900444 4.352-19.399111 0-3.527111-4.295111-2.986667-12.913778 4.494223-18.545778 7.367111-5.660444 14.193778-5.688889 19.683555-1.564445 5.518222 4.152889 3.356444 14.990222-4.750222 20.081778v0.028445z" fill="#F3614C" p-id="3553"></path></svg>