<!DOCTYPE svg PUBLIC "-//W3C//DTD SVG 20010904//EN" "http://www.w3.org/TR/2001/REC-SVG-20010904/DTD/svg10.dtd">
<svg version="1.0" xmlns="http://www.w3.org/2000/svg" width="1022px" height="312px" viewBox="0 0 10220 3120" preserveAspectRatio="xMidYMid meet">
<g id="layer101" fill="#191919" stroke="none">
 <path d="M1305 3111 c-62 -17 -225 -102 -428 -223 -26 -15 -49 -28 -52 -28 -3 0 -33 -17 -67 -38 -35 -21 -83 -50 -108 -64 -256 -143 -466 -271 -508 -311 -37 -35 -88 -109 -118 -172 -18 -38 -19 -73 -19 -740 l0 -700 24 -40 c29 -50 78 -113 111 -143 32 -28 323 -204 605 -364 44 -25 132 -75 195 -111 63 -36 161 -89 218 -118 l103 -54 152 0 152 0 75 39 c71 36 228 124 370 206 36 21 83 48 105 60 53 30 207 120 325 190 52 31 103 60 113 63 18 7 25 57 7 57 -10 0 -228 123 -312 177 -21 12 -40 23 -43 23 -2 0 -34 18 -70 40 -36 22 -67 40 -70 40 -3 0 -27 14 -53 30 -61 38 -83 38 -144 0 -26 -16 -51 -30 -53 -30 -3 0 -22 -11 -43 -23 -20 -13 -59 -36 -87 -52 -27 -15 -90 -50 -140 -78 -157 -88 -141 -84 -199 -54 -28 15 -69 37 -91 49 -108 61 -322 185 -478 276 -49 29 -92 52 -96 52 -4 0 -15 8 -24 18 -15 17 -17 64 -17 465 l0 446 88 49 c48 28 128 74 177 102 169 99 350 203 427 248 l78 44 50 -31 c28 -17 52 -31 55 -31 2 0 45 -25 95 -55 50 -30 93 -55 95 -55 2 0 44 -24 92 -53 149 -89 134 -85 206 -49 65 33 158 85 192 106 11 7 45 27 75 44 30 16 105 59 166 94 61 36 118 67 127 71 18 7 24 47 7 47 -5 0 -50 25 -100 55 -50 30 -93 55 -95 55 -2 0 -45 25 -95 55 -50 30 -93 55 -95 55 -3 0 -33 17 -67 38 -131 80 -446 257 -516 289 -63 29 -85 34 -170 38 -53 2 -110 1 -127 -4z"/>
 <path d="M2755 2207 c-22 -12 -41 -25 -43 -29 -2 -5 -8 -8 -14 -8 -6 0 -43 -20 -82 -45 -40 -25 -78 -45 -84 -45 -7 0 -12 -4 -12 -10 0 -5 -5 -10 -11 -10 -6 0 -45 -20 -86 -45 -40 -25 -78 -45 -83 -45 -6 0 -10 -4 -10 -8 0 -4 -12 -13 -27 -19 -16 -7 -50 -25 -78 -42 -27 -17 -57 -34 -65 -38 -8 -4 -53 -30 -100 -58 -47 -28 -92 -54 -100 -58 -8 -5 -24 -13 -35 -20 -84 -50 -197 -116 -230 -133 -53 -29 -58 -58 -13 -77 18 -8 86 -46 151 -86 65 -39 122 -71 127 -71 6 0 10 -4 10 -10 0 -5 5 -10 12 -10 6 0 62 -31 125 -70 63 -38 117 -70 120 -70 3 0 57 -31 119 -70 63 -38 117 -70 120 -70 3 0 50 -27 103 -60 54 -33 103 -60 109 -60 7 0 12 -3 12 -7 0 -5 10 -13 23 -19 12 -6 41 -21 64 -33 23 -13 47 -20 53 -16 7 4 10 227 10 686 l0 679 -22 0 c-13 -1 -41 -11 -63 -23z"/>
 <path d="M3266 2095 c-49 -17 -113 -78 -137 -130 -16 -35 -19 -67 -19 -277 l0 -238 129 0 129 0 4 181 c3 176 4 181 27 200 22 18 46 19 509 19 l485 0 -6 49 c-11 95 -67 165 -154 197 -56 20 -911 19 -967 -1z"/>
 <path d="M4570 1780 l0 -330 130 0 130 0 0 200 0 200 380 0 380 0 0 -200 0 -200 130 0 130 0 0 330 0 330 -640 0 -640 0 0 -330z"/>
 <path d="M6030 2087 c0 -13 7 -46 15 -74 18 -61 92 -136 151 -152 25 -7 186 -11 447 -11 l407 0 0 -75 0 -75 -510 0 -510 0 2 -327 3 -328 639 -3 639 -2 -6 49 c-11 92 -55 153 -137 190 -43 20 -64 21 -462 21 l-418 0 0 75 0 75 510 0 510 0 0 330 0 330 -640 0 -640 0 0 -23z"/>
 <path d="M7490 2087 c0 -13 7 -46 15 -74 18 -61 92 -136 151 -152 25 -7 186 -11 447 -11 l407 0 0 -75 0 -75 -510 0 -510 0 2 -327 3 -328 639 -3 639 -2 -6 49 c-11 92 -55 153 -137 190 -43 20 -64 21 -462 21 l-418 0 0 75 0 75 510 0 510 0 0 330 0 330 -640 0 -640 0 0 -23z"/>
 <path d="M9960 1868 c0 -230 -1 -240 -18 -225 -9 9 -38 25 -62 36 -43 20 -64 21 -493 21 l-447 0 2 -327 3 -328 128 -3 127 -3 0 206 0 205 380 0 380 0 0 -205 0 -205 130 0 130 0 0 535 0 535 -130 0 -130 0 0 -242z"/>
 <path d="M3112 1173 l3 -128 639 -3 639 -2 -6 49 c-11 93 -61 159 -150 196 -31 13 -115 15 -582 15 l-546 0 3 -127z"/>
 <path d="M4715 1281 c-58 -26 -121 -101 -135 -161 -21 -87 -79 -80 636 -80 l637 0 -6 49 c-11 93 -61 159 -150 196 -31 13 -105 15 -489 15 -418 0 -456 -2 -493 -19z"/>
 </g>
<g id="layer102" fill="#034082" stroke="none">
 <path d="M2790 2223 c-8 -4 -53 -30 -101 -58 -84 -51 -159 -94 -229 -131 -19 -11 -37 -22 -40 -25 -3 -3 -12 -8 -20 -12 -8 -4 -22 -11 -30 -17 -33 -21 -251 -150 -255 -150 -4 0 -94 -53 -292 -171 -45 -27 -86 -49 -91 -49 -5 0 -15 -7 -22 -15 -7 -8 -21 -15 -31 -15 -29 0 -26 -48 4 -59 12 -5 57 -30 100 -55 43 -25 80 -46 83 -46 3 0 14 -9 26 -20 12 -10 25 -17 30 -14 4 3 8 0 8 -5 0 -6 5 -11 10 -11 6 0 78 -40 160 -90 82 -49 152 -90 155 -90 4 0 129 -74 185 -110 8 -6 24 -14 35 -19 11 -5 37 -21 58 -35 21 -14 40 -26 42 -26 3 0 34 -18 70 -40 36 -22 68 -40 70 -40 3 0 23 -11 45 -25 58 -36 66 -33 74 28 8 69 8 1132 0 1230 -7 76 -11 82 -44 70z"/>
 <path d="M9960 1868 c0 -230 -1 -240 -18 -225 -9 9 -38 25 -62 36 -43 20 -64 21 -493 21 l-447 0 2 -327 3 -328 128 -3 127 -3 0 206 0 205 380 0 380 0 0 -204 0 -204 130 -1 130 -2 0 536 0 535 -130 0 -130 0 0 -242z"/>
 </g>

</svg>