<!DOCTYPE svg PUBLIC "-//W3C//DTD SVG 20010904//EN" "http://www.w3.org/TR/2001/REC-SVG-20010904/DTD/svg10.dtd">
<svg version="1.0" xmlns="http://www.w3.org/2000/svg" width="200px" height="200px" viewBox="0 0 6610 6610" preserveAspectRatio="xMidYMid meet">
<g id="layer101" fill="#2f2f2f" stroke="none">
 <path d="M3166 6599 c-43 -5 -100 -15 -126 -24 -66 -22 -434 -228 -1585 -888 -774 -444 -790 -454 -909 -610 -125 -164 -198 -336 -215 -510 -14 -138 -24 -2193 -12 -2432 10 -215 24 -287 81 -411 67 -148 196 -300 328 -388 191 -125 2073 -1199 2207 -1258 110 -49 210 -70 356 -75 235 -9 302 12 654 209 538 302 1815 1039 1815 1048 0 10 -1303 760 -1320 760 -7 0 -268 -145 -579 -322 -311 -177 -573 -322 -581 -322 -8 0 -383 211 -832 469 l-817 470 0 975 0 975 686 395 c377 217 755 435 839 484 l154 89 559 -327 c307 -179 564 -326 571 -326 17 0 1330 740 1330 750 0 8 -389 234 -1390 808 -814 467 -760 441 -975 462 -121 11 -125 11 -239 -1z"/>
 <path d="M5070 4015 c-668 -387 -1216 -708 -1218 -713 -2 -8 2426 -1432 2442 -1432 3 0 6 641 6 1425 0 784 -3 1425 -7 1425 -5 0 -555 -318 -1223 -705z"/>
 </g>
<g id="layer102" fill="#034082" stroke="none">
 <path d="M5070 4015 c-668 -387 -1216 -708 -1218 -713 -2 -8 2426 -1432 2442 -1432 3 0 6 641 6 1425 0 784 -3 1425 -7 1425 -5 0 -555 -318 -1223 -705z"/>
 </g>

</svg>
